<svg width="100" height="155" viewBox="0 0 100 155" fill="none" xmlns="http://www.w3.org/2000/svg">
<path fill-rule="evenodd" clip-rule="evenodd" d="M5 2H95C96.6569 2 98 3.34315 98 5V95C98 96.6569 96.6569 98 95 98H5C3.34315 98 2 96.6569 2 95V5C2 3.34315 3.34315 2 5 2ZM0 5C0 2.23858 2.23858 0 5 0H95C97.7614 0 100 2.23858 100 5V95C100 97.7614 97.7614 100 95 100H5C2.23858 100 0 97.7614 0 95V5ZM27.6959 93H8.298C7.57689 93 7 92.4128 7 91.6789V86.3211C7 85.5872 7.57689 85 8.298 85H27.6959C28.417 85 28.9939 85.5872 28.9939 86.3211V91.6789C29.066 92.4128 28.4891 93 27.6959 93ZM72.2011 93H33.7947C32.7897 93 32 92.1927 32 91.1651V86.8349C32 85.8073 32.7897 85 33.7947 85H72.2011C73.2061 85 73.9958 85.8073 73.9958 86.8349V91.1651C74.0676 92.1927 73.2061 93 72.2011 93ZM95.298 130H4.70199C2.11921 130 0 127.922 0 125.39V114.61C0 112.078 2.11921 110 4.70199 110H95.298C97.8808 110 100 112.078 100 114.61V125.39C100 127.922 97.8808 130 95.298 130ZM4.70199 155H95.298C97.8808 155 100 152.922 100 150.39V139.61C100 137.078 97.8808 135 95.298 135H4.70199C2.11921 135 0 137.078 0 139.61V150.39C0 152.922 2.11921 155 4.70199 155Z" fill="#DFE3EE"/>
<path d="M43.2485 48.5C44.4912 48.5 45.4985 47.4926 45.4985 46.25C45.4985 45.0074 44.4912 44 43.2485 44C42.0059 44 40.9985 45.0074 40.9985 46.25C40.9985 47.4926 42.0059 48.5 43.2485 48.5Z" fill="#DFE3EE"/>
<path d="M47.7485 53L45.4985 50L40.9985 56H58.9985L52.2485 47L47.7485 53Z" fill="#DFE3EE"/>
<path d="M61.9985 38H37.9985C36.344 38 34.9985 39.3455 34.9985 41V59C34.9985 60.6545 36.344 62 37.9985 62H61.9985C63.653 62 64.9985 60.6545 64.9985 59V41C64.9985 39.3455 63.653 38 61.9985 38ZM37.9985 59V41H61.9985L62.0015 59H37.9985Z" fill="#DFE3EE"/>
</svg>
