<svg width="100" height="155" viewBox="0 0 100 155" fill="none" xmlns="http://www.w3.org/2000/svg">
<path fill-rule="evenodd" clip-rule="evenodd" d="M67.8541 18C67.8541 27.9411 59.7953 36 49.8541 36C39.913 36 31.8541 27.9411 31.8541 18C31.8541 8.05887 39.913 0 49.8541 0C59.7953 0 67.8541 8.05887 67.8541 18ZM43.5751 48.5083H79.0055C79.9327 48.5083 80.7274 47.7009 80.6612 46.6734V42.3431C80.6612 41.3156 79.9327 40.5083 79.0055 40.5083H43.5751C42.6479 40.5083 41.9194 41.3156 41.9194 42.3431V46.6734C41.9194 47.7009 42.6479 48.5083 43.5751 48.5083ZM95.2318 80H4.70199C2.1192 80 0 77.9221 0 75.3896V64.6104C0 62.0779 2.1192 60 4.70199 60H95.298C97.8808 60 100 62.0779 100 64.6104V75.3896C99.9338 77.9221 97.8808 80 95.2318 80ZM95.2318 155H4.70199C2.1192 155 0 152.922 0 150.39V139.61C0 137.078 2.1192 135 4.70199 135H95.298C97.8808 135 100 137.078 100 139.61V150.39C99.9338 152.922 97.8808 155 95.2318 155ZM4.70199 105H95.2318C97.8808 105 99.9338 102.929 100 100.34V89.5955C100 87.0712 97.8808 85 95.298 85H4.70199C2.1192 85 0 87.0712 0 89.5955V100.405C0 102.929 2.1192 105 4.70199 105ZM95.2318 130H4.70199C2.1192 130 0 127.922 0 125.39V114.61C0 112.078 2.1192 110 4.70199 110H95.298C97.8808 110 100 112.078 100 114.61V125.39C99.9338 127.922 97.8808 130 95.2318 130ZM37.7478 48.5083H19.9333C19.271 48.5083 18.7412 47.9211 18.7412 47.1872V41.8294C18.7412 41.0954 19.271 40.5083 19.9333 40.5083H37.7478C38.4101 40.5083 38.9399 41.0954 38.9399 41.8294V47.1872C39.0061 47.9211 38.4763 48.5083 37.7478 48.5083Z" fill="#A6DCFF"/>
</svg>
