<?xml version="1.0" encoding="UTF-8" standalone="no"?>
<svg
   viewBox="0 0 48 48"
   width="24px"
   height="24px"
   version="1.1"
   id="svg6"
   sodipodi:docname="google-analytics.svg"
   inkscape:version="1.2.1 (9c6d41e410, 2022-07-14)"
   inkscape:export-filename="google_analytics.png"
   inkscape:export-xdpi="400"
   inkscape:export-ydpi="400"
   xmlns:inkscape="http://www.inkscape.org/namespaces/inkscape"
   xmlns:sodipodi="http://sodipodi.sourceforge.net/DTD/sodipodi-0.dtd"
   xmlns="http://www.w3.org/2000/svg"
   xmlns:svg="http://www.w3.org/2000/svg">
  <defs
     id="defs10" />
  <sodipodi:namedview
     id="namedview8"
     pagecolor="#ffffff"
     bordercolor="#000000"
     borderopacity="0.25"
     inkscape:showpageshadow="2"
     inkscape:pageopacity="0.0"
     inkscape:pagecheckerboard="0"
     inkscape:deskcolor="#d1d1d1"
     showgrid="false"
     inkscape:zoom="6.96"
     inkscape:cx="42.097701"
     inkscape:cy="11.494253"
     inkscape:window-width="1366"
     inkscape:window-height="697"
     inkscape:window-x="1358"
     inkscape:window-y="-8"
     inkscape:window-maximized="1"
     inkscape:current-layer="svg6" />
  <g
     transform="matrix(0.22820721,0,0,0.22820597,2.0921078,2.0922269)"
     id="g10">
    <path
       d="m 130,29 v 132 c 0,14.77 10.2,23 21,23 10,0 21,-7 21,-23 V 30 C 172,16.46 162,8 151,8 140,8 130,17.33 130,29 Z"
       fill="#f9ab00"
       id="path2" />
    <g
       fill="#e37400"
       id="g8">
      <path
         d="m 75,96 v 65 c 0,14.77 10.2,23 21,23 10,0 21,-7 21,-23 V 97 C 117,83.46 107,75 96,75 85,75 75,84.33 75,96 Z"
         id="path4" />
      <circle
         cx="41"
         cy="163"
         r="21"
         id="circle6" />
    </g>
  </g>
</svg>
