<?xml version="1.0" encoding="UTF-8" standalone="no"?>
<svg
   viewBox="0 0 48 48"
   width="24px"
   height="24px"
   version="1.1"
   id="svg6"
   sodipodi:docname="google.svg"
   inkscape:version="1.2.1 (9c6d41e410, 2022-07-14)"
   inkscape:export-filename="google.png"
   inkscape:export-xdpi="400"
   inkscape:export-ydpi="400"
   xmlns:inkscape="http://www.inkscape.org/namespaces/inkscape"
   xmlns:sodipodi="http://sodipodi.sourceforge.net/DTD/sodipodi-0.dtd"
   xmlns="http://www.w3.org/2000/svg"
   xmlns:svg="http://www.w3.org/2000/svg">
  <defs
     id="defs10" />
  <sodipodi:namedview
     id="namedview8"
     pagecolor="#ffffff"
     bordercolor="#000000"
     borderopacity="0.25"
     inkscape:showpageshadow="2"
     inkscape:pageopacity="0.0"
     inkscape:pagecheckerboard="0"
     inkscape:deskcolor="#d1d1d1"
     showgrid="false"
     inkscape:zoom="6.96"
     inkscape:cx="42.097701"
     inkscape:cy="11.494253"
     inkscape:window-width="1366"
     inkscape:window-height="697"
     inkscape:window-x="1358"
     inkscape:window-y="-8"
     inkscape:window-maximized="1"
     inkscape:current-layer="svg6" />
  <g
     id="g4031">
    <path
       fill="#ffc107"
       d="M 43.611,20.083 H 42 V 20 H 24 v 8 H 35.303 C 33.654,32.657 29.223,36 24,36 17.373,36 12,30.627 12,24 c 0,-6.627 5.373,-12 12,-12 3.059,0 5.842,1.154 7.961,3.039 L 37.618,9.382 C 34.046,6.053 29.268,4 24,4 12.955,4 4,12.955 4,24 c 0,11.045 8.955,20 20,20 11.045,0 20,-8.955 20,-20 0,-1.341 -0.138,-2.65 -0.389,-3.917 z"
       id="path1946" />
    <path
       fill="#ff3d00"
       d="m 6.306,14.691 6.571,4.819 C 14.655,15.108 18.961,12 24,12 c 3.059,0 5.842,1.154 7.961,3.039 L 37.618,9.382 C 34.046,6.053 29.268,4 24,4 16.318,4 9.656,8.337 6.306,14.691 Z"
       id="path1948" />
    <path
       fill="#4caf50"
       d="m 24,44 c 5.166,0 9.86,-1.977 13.409,-5.192 L 31.219,33.57 C 29.211,35.091 26.715,36 24,36 18.798,36 14.381,32.683 12.717,28.054 L 6.195,33.079 C 9.505,39.556 16.227,44 24,44 Z"
       id="path1950" />
    <path
       fill="#1976d2"
       d="M 43.611,20.083 H 42 V 20 H 24 v 8 h 11.303 c -0.792,2.237 -2.231,4.166 -4.087,5.571 10e-4,-10e-4 0.002,-10e-4 0.003,-0.002 l 6.19,5.238 C 36.971,39.205 44,34 44,24 44,22.659 43.862,21.35 43.611,20.083 Z"
       id="path1952" />
  </g>
</svg>
