<?xml version="1.0" encoding="UTF-8" standalone="no"?>
<svg
   viewBox="0 0 48 48"
   width="24px"
   height="24px"
   version="1.1"
   id="svg6"
   sodipodi:docname="google-tag-manager.svg"
   inkscape:version="1.2.1 (9c6d41e410, 2022-07-14)"
   inkscape:export-filename="google_tag_manager.png"
   inkscape:export-xdpi="400"
   inkscape:export-ydpi="400"
   xmlns:inkscape="http://www.inkscape.org/namespaces/inkscape"
   xmlns:sodipodi="http://sodipodi.sourceforge.net/DTD/sodipodi-0.dtd"
   xmlns="http://www.w3.org/2000/svg"
   xmlns:svg="http://www.w3.org/2000/svg">
  <defs
     id="defs10" />
  <sodipodi:namedview
     id="namedview8"
     pagecolor="#ffffff"
     bordercolor="#000000"
     borderopacity="0.25"
     inkscape:showpageshadow="2"
     inkscape:pageopacity="0.0"
     inkscape:pagecheckerboard="0"
     inkscape:deskcolor="#d1d1d1"
     showgrid="false"
     inkscape:zoom="6.96"
     inkscape:cx="42.097701"
     inkscape:cy="34.482759"
     inkscape:window-width="1366"
     inkscape:window-height="697"
     inkscape:window-x="1358"
     inkscape:window-y="-8"
     inkscape:window-maximized="1"
     inkscape:current-layer="svg6" />
  <g
     id="g4127"
     transform="matrix(0.01859047,0,0,0.01859047,-4.5562396,1.7883387)">
	<path
   class="st0"
   d="m 1725.6,2200.4 -377.9,-378.3 811.8,-820.1 384.9,384.8 z"
   id="path4119"
   style="fill:#8ab4f8" />

	<path
   class="st1"
   d="M 1728.3,571 1343.5,186.1 527.6,1002 c -106.3,106.2 -106.4,278.3 -0.2,384.6 0.1,0.1 0.2,0.2 0.2,0.2 l 815.9,815.9 377.5,-379.2 -616.6,-628.6 z"
   id="path4121"
   style="fill:#4285f4" />

	<path
   class="st0"
   d="M 2544.2,1002 1728.3,186.1 c -106.3,-106.3 -278.6,-106.3 -384.9,0 -106.3,106.3 -106.3,278.6 0,384.8 l 816.4,815.9 c 106.3,106.3 278.6,106.3 384.8,0 106.3,-106.3 106.3,-278.6 0,-384.8 z"
   id="path4123"
   style="fill:#8ab4f8" />

	<circle
   class="st2"
   cx="1532.9"
   cy="2013.5"
   r="269.70001"
   id="circle4125"
   style="fill:#246fdb" />

</g>
</svg>
