<svg xmlns="http://www.w3.org/2000/svg" width="74" height="44" viewBox="0 0 74 44">
    <path d="M29.5 32.1l2.8-1.6a5.5 5.5 0 0010.2-2.9v-1.3a8.4 8.4 0 01-5.7 2.2 8.7 8.7 0 01-8.6-8.8 8.7 8.7 0 018.6-8.7 8.4 8.4 0 015.7 2.2v-3l3.3 2v15.4a8.8 8.8 0 01-16.3 4.5zm2-12.4a5.6 5.6 0 105.6-5.6 5.6 5.6 0 00-5.6 5.7zm23 0A8.7 8.7 0 0163 11a8.4 8.4 0 015.7 2.2V6.5L72 4.6v23.7h-3.3v-2a8.4 8.4 0 01-5.7 2.2 8.7 8.7 0 01-8.6-8.8zm3.2 0a5.6 5.6 0 105.6-5.6 5.6 5.6 0 00-5.6 5.7zM49 28.4V14l3.3 2v12.3zm-26.2 0V18.1a4 4 0 00-8.2 0v10.2h-3.2V18.1a4 4 0 00-8.2 0v10.2H0v-17h3.3v1.9a6.5 6.5 0 0110.6 1.1 6.5 6.5 0 0112.3 3.2v10.8z" fill="#00c"></path>
    <path fill="#ff0000" d="M46.4 4l-3.9 1.7 9.9 5.6 3.2-1.9z" ></path>
    <path fill="#ff6d70" d="M49 9.4l3.4 2L72 0z"></path>
</svg>