<?xml version="1.0" encoding="UTF-8" standalone="no"?>
<svg
   xmlns:dc="http://purl.org/dc/elements/1.1/"
   xmlns:cc="http://creativecommons.org/ns#"
   xmlns:rdf="http://www.w3.org/1999/02/22-rdf-syntax-ns#"
   xmlns:svg="http://www.w3.org/2000/svg"
   xmlns="http://www.w3.org/2000/svg"
   xmlns:sodipodi="http://sodipodi.sourceforge.net/DTD/sodipodi-0.dtd"
   xmlns:inkscape="http://www.inkscape.org/namespaces/inkscape"
   version="1.1"
   id="svg2"
   xml:space="preserve"
   width="173"
   height="172"
   viewBox="0 0 173 172"
   sodipodi:docname="icon.svg"
   inkscape:export-filename="G:\Users\suitedoalex\sites\pix-bc-logo-0.png"
   inkscape:export-xdpi="561.73712"
   inkscape:export-ydpi="561.73712"
   inkscape:version="1.0 (4035a4fb49, 2020-05-01)"><metadata
     id="metadata8"><rdf:RDF><cc:Work
         rdf:about=""><dc:format>image/svg+xml</dc:format><dc:type
           rdf:resource="http://purl.org/dc/dcmitype/StillImage" /><dc:title /></cc:Work></rdf:RDF></metadata><defs
     id="defs6" /><sodipodi:namedview
     pagecolor="#ffffff"
     bordercolor="#666666"
     borderopacity="1"
     objecttolerance="10"
     gridtolerance="10"
     guidetolerance="10"
     inkscape:pageopacity="0"
     inkscape:pageshadow="2"
     inkscape:window-width="1920"
     inkscape:window-height="1001"
     id="namedview4"
     showgrid="false"
     inkscape:zoom="0.72880595"
     inkscape:cx="386.27202"
     inkscape:cy="409.93985"
     inkscape:window-x="-9"
     inkscape:window-y="-9"
     inkscape:window-maximized="1"
     inkscape:current-layer="g10"
     inkscape:document-rotation="0"
     units="in" /><g
     id="g10"
     inkscape:groupmode="layer"
     inkscape:label="pix-banco-central-logo"
     transform="matrix(1.3333333,0,0,-1.3333333,0,700)"><g
       id="g221"
       transform="translate(-71.948396,202.1707)"><g
         transform="matrix(0.5829914,0,0,0.5829914,171.49377,225.11894)"
         id="g992"><path
           inkscape:connector-curvature="0"
           id="path994"
           style="fill:#32bcad;fill-opacity:1;fill-rule:nonzero;stroke:none"
           d="m 0,0 c -8.342,0 -16.187,3.248 -22.085,9.144 l -31.89,31.889 c -2.238,2.245 -6.141,2.238 -8.379,0 L -94.36,9.027 c -5.899,-5.895 -13.744,-9.143 -22.086,-9.143 h -6.284 l 40.388,-40.389 c 12.614,-12.613 33.065,-12.613 45.679,0 L 3.842,0 Z" /></g><g
         transform="matrix(0.5829914,0,0,0.5829914,103.60687,290.87973)"
         id="g996"><path
           inkscape:connector-curvature="0"
           id="path998"
           style="fill:#32bcad;fill-opacity:1;fill-rule:nonzero;stroke:none"
           d="m 0,0 c 8.342,0 16.187,-3.249 22.085,-9.145 l 32.006,-32.011 c 2.305,-2.305 6.069,-2.315 8.38,0.003 L 94.36,-9.261 c 5.899,5.896 13.744,9.144 22.086,9.144 h 3.841 L 79.783,40.387 c -12.614,12.614 -33.065,12.614 -45.679,0 L -6.283,0 Z" /></g><g
         transform="matrix(0.5829914,0,0,0.5829914,193.26453,271.28003)"
         id="g1000"><path
           inkscape:connector-curvature="0"
           id="path1002"
           style="fill:#32bcad;fill-opacity:1;fill-rule:nonzero;stroke:none"
           d="m 0,0 -24.477,24.477 c -0.539,-0.216 -1.122,-0.351 -1.738,-0.351 h -11.128 c -5.754,0 -11.386,-2.333 -15.451,-6.401 l -31.89,-31.89 c -2.983,-2.984 -6.904,-4.478 -10.822,-4.478 -3.921,0 -7.839,1.494 -10.823,4.475 l -32.009,32.009 c -4.066,4.068 -9.697,6.401 -15.451,6.401 h -13.684 c -0.583,0 -1.129,0.138 -1.644,0.332 L -193.691,0 c -12.614,-12.613 -12.614,-33.064 0,-45.679 l 24.573,-24.573 c 0.515,0.194 1.062,0.332 1.645,0.332 h 13.684 c 5.754,0 11.385,2.333 15.451,6.401 l 32.006,32.006 c 5.785,5.78 15.869,5.783 21.648,-0.003 l 31.89,-31.886 c 4.065,-4.069 9.697,-6.402 15.451,-6.402 h 11.128 c 0.617,0 1.199,-0.134 1.739,-0.35 L 0,-45.679 C 12.614,-33.064 12.614,-12.613 0,0" /></g></g></g></svg>
