<?xml version="1.0" encoding="UTF-8" standalone="no"?>
<svg
   viewBox="0 0 48 48"
   width="24px"
   height="24px"
   version="1.1"
   id="svg6"
   sodipodi:docname="tiktok.svg"
   inkscape:version="1.2.1 (9c6d41e410, 2022-07-14)"
   inkscape:export-filename="tiktok.png"
   inkscape:export-xdpi="400"
   inkscape:export-ydpi="400"
   xmlns:inkscape="http://www.inkscape.org/namespaces/inkscape"
   xmlns:sodipodi="http://sodipodi.sourceforge.net/DTD/sodipodi-0.dtd"
   xmlns="http://www.w3.org/2000/svg"
   xmlns:svg="http://www.w3.org/2000/svg">
  <defs
     id="defs10" />
  <sodipodi:namedview
     id="namedview8"
     pagecolor="#ffffff"
     bordercolor="#000000"
     borderopacity="0.25"
     inkscape:showpageshadow="2"
     inkscape:pageopacity="0.0"
     inkscape:pagecheckerboard="0"
     inkscape:deskcolor="#d1d1d1"
     showgrid="false"
     inkscape:zoom="16"
     inkscape:cx="9.3125"
     inkscape:cy="13"
     inkscape:window-width="1366"
     inkscape:window-height="697"
     inkscape:window-x="1358"
     inkscape:window-y="-8"
     inkscape:window-maximized="1"
     inkscape:current-layer="svg6" />
  <g
     id="g4968"
     transform="matrix(0.09415607,0,0,0.09415607,-15.452548,-3.672469)">
	<path
   d="m 613.8,183.2 c -25.4,0 -48.8,-8.4 -67.6,-22.6 C 524.6,144.3 509.1,120.5 503.7,93 502.3,86.2 501.6,79.2 501.5,72 H 429 v 198.1 108.5 c 0,29 -18.9,53.6 -45.1,62.2 -7.6,2.5 -15.8,3.7 -24.3,3.2 -10.9,-0.6 -21.1,-3.9 -30,-9.2 -18.9,-11.3 -31.7,-31.8 -32.1,-55.3 -0.5,-36.7 29.1,-66.6 65.7,-66.6 7.2,0 14.2,1.2 20.7,3.3 v -54.1 -19.5 c -6.9,-1 -13.8,-1.5 -20.9,-1.5 -40.1,0 -77.6,16.7 -104.4,46.7 -20.3,22.7 -32.4,51.7 -34.3,82 -2.5,39.9 12.1,77.8 40.4,105.8 4.2,4.1 8.5,7.9 13.1,11.4 24.3,18.7 53.9,28.8 85.2,28.8 7.1,0 14,-0.5 20.9,-1.5 29.2,-4.3 56.1,-17.7 77.4,-38.7 26.1,-25.8 40.6,-60.1 40.7,-96.6 l -0.4,-162 c 12.5,9.6 26.1,17.6 40.7,23.7 22.7,9.6 46.9,14.5 71.7,14.4 V 202.5 183 c 0,0.2 -0.2,0.2 -0.2,0.2 z"
   id="path4966" />

</g>
</svg>
